<svg width="40" height="40" viewBox="0 0 40 40" fill="none" xmlns="http://www.w3.org/2000/svg">
<path fill-rule="evenodd" clip-rule="evenodd" d="M20 40C31.0457 40 40 31.0457 40 20C40 8.95431 31.0457 0 20 0C8.95431 0 0 8.95431 0 20C0 31.0457 8.95431 40 20 40Z" fill="#FFDE00"/>
<mask id="mask0" mask-type="alpha" maskUnits="userSpaceOnUse" x="11" y="26" width="18" height="5">
<path fill-rule="evenodd" clip-rule="evenodd" d="M11 26.5231H28.8849V31H11V26.5231Z" fill="white"/>
</mask>
<g mask="url(#mask0)">
<path fill-rule="evenodd" clip-rule="evenodd" d="M20.1518 31C15.0698 31 11.3575 28.0206 11.3023 27.9749C10.9245 27.665 10.8971 27.1367 11.2408 26.7961C11.584 26.4557 12.1676 26.4305 12.5452 26.7393C12.8368 26.9774 19.7824 32.5018 27.3644 26.72C27.7543 26.4225 28.3376 26.4675 28.6668 26.8192C28.9961 27.1716 28.9471 27.6982 28.5568 27.9955C25.6028 30.2481 22.7045 31 20.1518 31Z" fill="#221F1F"/>
</g>
<mask id="mask1" mask-type="alpha" maskUnits="userSpaceOnUse" x="12" y="10" width="8" height="13">
<path fill-rule="evenodd" clip-rule="evenodd" d="M12.4199 10.124H19.6493V22.4419H12.4199V10.124Z" fill="white"/>
</mask>
<g mask="url(#mask1)">
<path fill-rule="evenodd" clip-rule="evenodd" d="M12.4199 10.124H14.2483V15.3855C14.7349 14.5055 15.6404 14.0305 16.7978 14.0305C17.9217 14.0305 18.7099 14.4529 19.146 15.1392C19.5317 15.7549 19.6493 16.4412 19.6493 17.5674V22.4419H17.8209V18.2011C17.8209 16.7932 17.4352 15.7199 16.1268 15.7199C14.8521 15.7199 14.2483 16.7932 14.2483 18.2011V22.4419H12.4199V10.124Z" fill="#221F1F"/>
</g>
<path fill-rule="evenodd" clip-rule="evenodd" d="M26.6666 17.2188C27.5873 17.2188 28.3333 16.4842 28.3333 15.578C28.3333 14.6722 27.5873 13.9375 26.6666 13.9375C25.746 13.9375 25 14.6722 25 15.578C25 16.4842 25.746 17.2188 26.6666 17.2188Z" fill="#221F1F"/>
</svg>
