<?xml version="1.0" encoding="UTF-8"?>
<svg width="100px" height="100px" viewBox="0 0 100 100" version="1.1" xmlns="http://www.w3.org/2000/svg" xmlns:xlink="http://www.w3.org/1999/xlink">
    <!-- Generator: Sketch 51.2 (57519) - http://www.bohemiancoding.com/sketch -->
    <title>100</title>
    <desc>Created with Sketch.</desc>
    <defs></defs>
    <g id="100" stroke="none" stroke-width="1" fill="none" fill-rule="evenodd">
        <circle id="Oval" fill="#FEE101" fill-rule="nonzero" cx="50" cy="50" r="36"></circle>
        <g id="Artboard-1" transform="translate(25.000000, 22.000000)" fill="#221F1F" fill-rule="nonzero">
            <path d="M24.4867488,55.4225641 C11.2395091,55.4225641 1.58600779,46.8875101 1.43994849,46.75589 C0.506832111,45.8570544 0.459841427,44.3847361 1.333766,43.4289665 C2.20769058,42.4731969 3.68724049,42.3787936 4.67703039,43.2156481 C5.43789749,43.8906228 23.5254748,59.7255273 43.2672586,43.1616502 C43.9198956,42.5745345 44.8429731,42.3880512 45.6745516,42.6753206 C46.5061302,42.96259 47.1136616,43.6778232 47.2589323,44.5405767 C47.4042031,45.4033302 47.064058,46.2760867 46.3718681,46.8166377 C38.6816756,53.2727699 31.1273523,55.4225641 24.4867488,55.4225641 Z" id="Shape"></path>
            <path d="M4,0 L8.90123341,0 L8.90123341,13.4597998 C10.2061953,11.2119793 12.6296959,9.99822409 15.7344883,9.99822409 C18.7477639,9.99822409 20.8594294,11.0763642 22.0288108,12.8325799 C23.0626118,14.4057152 23.3846154,16.1619309 23.3846154,19.0403616 L23.3846154,31.5 L18.4698239,31.5 L18.4698239,20.6507911 C18.4698239,17.0536003 17.436023,14.3073943 13.9278787,14.3073943 C10.5112513,14.3073943 8.89106487,17.0502099 8.89106487,20.6507911 L8.89106487,31.5 L4,31.5 L4,0 Z" id="Shape"></path>
            <path d="M40.5999374,19.1932154 C42.4610538,19.1932134 44.138784,18.0725667 44.8503665,16.354124 C45.561949,14.6356813 45.1671523,12.6580959 43.8501727,11.3440297 C42.533193,10.0299635 40.5535675,9.63837941 38.8349099,10.3519748 C37.1162522,11.0655702 35.997258,12.7437169 36.000005,14.6034591 C36.000005,17.1420585 38.0594649,19.2 40.5999374,19.2" id="Shape"></path>
        </g>
    </g>
</svg>