<svg width="186" height="31" viewBox="0 0 186 31" fill="none" xmlns="http://www.w3.org/2000/svg">
  <path opacity="0.56" d="M0 8C0 3.58172 3.58172 0 8 0H178C182.418 0 186 3.58172 186 8V31H0V8Z" fill="#221F1F" fill-opacity="0.88"/>
  <path d="M30.876 11.6H33.888C34.336 11.6 34.74 11.68 35.1 11.84C35.468 11.992 35.78 12.204 36.036 12.476C36.3 12.748 36.5 13.064 36.636 13.424C36.78 13.776 36.852 14.148 36.852 14.54C36.852 14.94 36.78 15.316 36.636 15.668C36.5 16.02 36.3 16.332 36.036 16.604C35.78 16.876 35.468 17.092 35.1 17.252C34.74 17.404 34.336 17.48 33.888 17.48H32.256V20H30.876V11.6ZM33.888 16.244C34.128 16.244 34.344 16.2 34.536 16.112C34.736 16.016 34.904 15.892 35.04 15.74C35.176 15.58 35.28 15.4 35.352 15.2C35.432 14.992 35.472 14.772 35.472 14.54C35.472 14.308 35.432 14.092 35.352 13.892C35.28 13.684 35.176 13.504 35.04 13.352C34.904 13.192 34.736 13.068 34.536 12.98C34.344 12.884 34.128 12.836 33.888 12.836H32.256V16.244H33.888ZM40.1226 20.144C39.6746 20.144 39.2706 20.068 38.9106 19.916C38.5506 19.756 38.2426 19.54 37.9866 19.268C37.7306 18.996 37.5306 18.684 37.3866 18.332C37.2506 17.98 37.1826 17.604 37.1826 17.204C37.1826 16.812 37.2506 16.44 37.3866 16.088C37.5306 15.728 37.7306 15.412 37.9866 15.14C38.2426 14.868 38.5506 14.656 38.9106 14.504C39.2706 14.344 39.6746 14.264 40.1226 14.264C40.5706 14.264 40.9746 14.344 41.3346 14.504C41.7026 14.656 42.0146 14.868 42.2706 15.14C42.5346 15.412 42.7346 15.728 42.8706 16.088C43.0146 16.44 43.0866 16.812 43.0866 17.204C43.0866 17.604 43.0146 17.98 42.8706 18.332C42.7346 18.684 42.5346 18.996 42.2706 19.268C42.0146 19.54 41.7026 19.756 41.3346 19.916C40.9746 20.068 40.5706 20.144 40.1226 20.144ZM40.1226 18.98C40.3706 18.98 40.5946 18.932 40.7946 18.836C41.0026 18.74 41.1786 18.612 41.3226 18.452C41.4666 18.292 41.5786 18.104 41.6586 17.888C41.7386 17.672 41.7786 17.444 41.7786 17.204C41.7786 16.964 41.7386 16.736 41.6586 16.52C41.5786 16.304 41.4666 16.116 41.3226 15.956C41.1786 15.796 41.0026 15.668 40.7946 15.572C40.5946 15.476 40.3706 15.428 40.1226 15.428C39.8746 15.428 39.6506 15.476 39.4506 15.572C39.2506 15.668 39.0786 15.796 38.9346 15.956C38.7906 16.116 38.6786 16.304 38.5986 16.52C38.5266 16.736 38.4906 16.964 38.4906 17.204C38.4906 17.444 38.5266 17.672 38.5986 17.888C38.6786 18.104 38.7906 18.292 38.9346 18.452C39.0786 18.612 39.2506 18.74 39.4506 18.836C39.6506 18.932 39.8746 18.98 40.1226 18.98ZM48.0709 15.824L46.5949 20H45.7189L43.5469 14.408H44.9509L46.1629 17.948L47.4229 14.408H48.7069L49.9669 17.948L51.1789 14.408H52.5829L50.4109 20H49.5349L48.0709 15.824ZM55.6103 15.248C55.2023 15.248 54.8623 15.364 54.5903 15.596C54.3183 15.828 54.1823 16.172 54.1823 16.628H56.9663C56.9663 16.196 56.8383 15.86 56.5823 15.62C56.3343 15.372 56.0103 15.248 55.6103 15.248ZM54.1823 17.6C54.1983 17.8 54.2343 17.988 54.2903 18.164C54.3463 18.34 54.4303 18.496 54.5423 18.632C54.6623 18.76 54.8143 18.864 54.9983 18.944C55.1823 19.016 55.4103 19.052 55.6823 19.052C56.0583 19.052 56.3303 18.98 56.4983 18.836C56.6663 18.692 56.7903 18.52 56.8703 18.32H58.1903C58.1503 18.56 58.0623 18.792 57.9263 19.016C57.7983 19.232 57.6263 19.424 57.4103 19.592C57.1943 19.76 56.9423 19.896 56.6543 20C56.3663 20.096 56.0423 20.144 55.6823 20.144C55.2103 20.144 54.7983 20.068 54.4463 19.916C54.1023 19.764 53.8143 19.556 53.5823 19.292C53.3503 19.028 53.1743 18.716 53.0543 18.356C52.9423 17.996 52.8863 17.612 52.8863 17.204C52.8863 16.788 52.9463 16.4 53.0663 16.04C53.1943 15.68 53.3743 15.368 53.6063 15.104C53.8383 14.84 54.1263 14.636 54.4703 14.492C54.8143 14.34 55.2063 14.264 55.6463 14.264C56.0063 14.264 56.3423 14.328 56.6543 14.456C56.9743 14.584 57.2503 14.764 57.4823 14.996C57.7223 15.22 57.9063 15.484 58.0343 15.788C58.1703 16.092 58.2383 16.424 58.2383 16.784C58.2383 16.88 58.2343 16.996 58.2263 17.132C58.2263 17.26 58.2103 17.416 58.1783 17.6H54.1823ZM63.2093 15.62C63.1053 15.596 63.0173 15.58 62.9453 15.572C62.8813 15.564 62.7973 15.56 62.6933 15.56C62.1333 15.56 61.7053 15.724 61.4093 16.052C61.1133 16.372 60.9653 16.884 60.9653 17.588V20H59.6573V14.408H60.9653V15.308C61.0293 15.18 61.1173 15.06 61.2293 14.948C61.3493 14.828 61.4853 14.724 61.6373 14.636C61.7973 14.54 61.9653 14.468 62.1413 14.42C62.3253 14.364 62.5093 14.336 62.6933 14.336C62.9013 14.336 63.0733 14.364 63.2093 14.42V15.62ZM66.4032 15.248C65.9952 15.248 65.6552 15.364 65.3832 15.596C65.1112 15.828 64.9752 16.172 64.9752 16.628H67.7592C67.7592 16.196 67.6312 15.86 67.3752 15.62C67.1272 15.372 66.8032 15.248 66.4032 15.248ZM64.9752 17.6C64.9912 17.8 65.0272 17.988 65.0832 18.164C65.1392 18.34 65.2232 18.496 65.3352 18.632C65.4552 18.76 65.6072 18.864 65.7912 18.944C65.9752 19.016 66.2032 19.052 66.4752 19.052C66.8512 19.052 67.1232 18.98 67.2912 18.836C67.4592 18.692 67.5832 18.52 67.6632 18.32H68.9832C68.9432 18.56 68.8552 18.792 68.7192 19.016C68.5912 19.232 68.4192 19.424 68.2032 19.592C67.9872 19.76 67.7352 19.896 67.4472 20C67.1592 20.096 66.8352 20.144 66.4752 20.144C66.0032 20.144 65.5912 20.068 65.2392 19.916C64.8952 19.764 64.6072 19.556 64.3752 19.292C64.1432 19.028 63.9672 18.716 63.8472 18.356C63.7352 17.996 63.6792 17.612 63.6792 17.204C63.6792 16.788 63.7392 16.4 63.8592 16.04C63.9872 15.68 64.1672 15.368 64.3992 15.104C64.6312 14.84 64.9192 14.636 65.2632 14.492C65.6072 14.34 65.9992 14.264 66.4392 14.264C66.7992 14.264 67.1352 14.328 67.4472 14.456C67.7672 14.584 68.0432 14.764 68.2752 14.996C68.5152 15.22 68.6992 15.484 68.8272 15.788C68.9632 16.092 69.0312 16.424 69.0312 16.784C69.0312 16.88 69.0272 16.996 69.0192 17.132C69.0192 17.26 69.0032 17.416 68.9712 17.6H64.9752ZM74.6262 19.244C74.4502 19.524 74.1982 19.744 73.8702 19.904C73.5502 20.064 73.2262 20.144 72.8982 20.144C72.4742 20.144 72.0862 20.068 71.7342 19.916C71.3822 19.756 71.0782 19.54 70.8222 19.268C70.5742 18.996 70.3782 18.684 70.2342 18.332C70.0982 17.98 70.0302 17.604 70.0302 17.204C70.0302 16.812 70.0982 16.44 70.2342 16.088C70.3782 15.728 70.5742 15.412 70.8222 15.14C71.0782 14.868 71.3822 14.656 71.7342 14.504C72.0862 14.344 72.4742 14.264 72.8982 14.264C73.2262 14.264 73.5502 14.344 73.8702 14.504C74.1982 14.664 74.4502 14.884 74.6262 15.164V11.6H75.9342V20H74.6262V19.244ZM72.9702 18.98C73.2182 18.98 73.4422 18.932 73.6422 18.836C73.8502 18.74 74.0262 18.612 74.1702 18.452C74.3142 18.292 74.4262 18.104 74.5062 17.888C74.5862 17.672 74.6262 17.444 74.6262 17.204C74.6262 16.964 74.5862 16.736 74.5062 16.52C74.4262 16.304 74.3142 16.116 74.1702 15.956C74.0262 15.796 73.8502 15.668 73.6422 15.572C73.4422 15.476 73.2182 15.428 72.9702 15.428C72.7222 15.428 72.4982 15.476 72.2982 15.572C72.0982 15.668 71.9262 15.796 71.7822 15.956C71.6382 16.116 71.5262 16.304 71.4462 16.52C71.3742 16.736 71.3382 16.964 71.3382 17.204C71.3382 17.444 71.3742 17.672 71.4462 17.888C71.5262 18.104 71.6382 18.292 71.7822 18.452C71.9262 18.612 72.0982 18.74 72.2982 18.836C72.4982 18.932 72.7222 18.98 72.9702 18.98ZM81.9887 20H80.6807V11.6H81.9887V15.164C82.1647 14.884 82.4127 14.664 82.7327 14.504C83.0607 14.344 83.3887 14.264 83.7167 14.264C84.1407 14.264 84.5287 14.344 84.8807 14.504C85.2327 14.656 85.5327 14.868 85.7807 15.14C86.0367 15.412 86.2327 15.728 86.3687 16.088C86.5127 16.44 86.5847 16.812 86.5847 17.204C86.5847 17.604 86.5127 17.98 86.3687 18.332C86.2327 18.684 86.0367 18.996 85.7807 19.268C85.5327 19.54 85.2327 19.756 84.8807 19.916C84.5287 20.068 84.1407 20.144 83.7167 20.144C83.3887 20.144 83.0607 20.064 82.7327 19.904C82.4127 19.744 82.1647 19.524 81.9887 19.244V20ZM83.6447 18.98C83.8927 18.98 84.1167 18.932 84.3167 18.836C84.5167 18.74 84.6887 18.612 84.8327 18.452C84.9767 18.292 85.0847 18.104 85.1567 17.888C85.2367 17.672 85.2767 17.444 85.2767 17.204C85.2767 16.964 85.2367 16.736 85.1567 16.52C85.0847 16.304 84.9767 16.116 84.8327 15.956C84.6887 15.796 84.5167 15.668 84.3167 15.572C84.1167 15.476 83.8927 15.428 83.6447 15.428C83.3887 15.428 83.1567 15.476 82.9487 15.572C82.7487 15.668 82.5767 15.796 82.4327 15.956C82.2887 16.116 82.1767 16.304 82.0967 16.52C82.0247 16.736 81.9887 16.964 81.9887 17.204C81.9887 17.444 82.0247 17.672 82.0967 17.888C82.1767 18.104 82.2887 18.292 82.4327 18.452C82.5767 18.612 82.7487 18.74 82.9487 18.836C83.1567 18.932 83.3887 18.98 83.6447 18.98ZM90.4663 22.916C90.0903 22.916 89.7423 22.868 89.4223 22.772C89.1103 22.676 88.8383 22.532 88.6063 22.34C88.3743 22.148 88.1903 21.908 88.0543 21.62C87.9183 21.332 87.8463 20.996 87.8383 20.612H89.1583C89.1903 21.02 89.3303 21.32 89.5783 21.512C89.8343 21.712 90.1343 21.812 90.4783 21.812C90.6783 21.812 90.8623 21.792 91.0303 21.752C91.1983 21.712 91.3423 21.64 91.4623 21.536C91.5823 21.432 91.6743 21.296 91.7383 21.128C91.8103 20.96 91.8463 20.744 91.8463 20.48V19.196C91.6703 19.5 91.4263 19.732 91.1143 19.892C90.8023 20.044 90.4383 20.12 90.0223 20.12C89.6143 20.12 89.2703 20.052 88.9903 19.916C88.7183 19.78 88.5023 19.596 88.3423 19.364C88.2063 19.156 88.1103 18.924 88.0543 18.668C88.0063 18.412 87.9823 18.092 87.9823 17.708V14.384H89.2903V17.276C89.2903 17.516 89.3103 17.74 89.3503 17.948C89.3903 18.156 89.4543 18.336 89.5423 18.488C89.6383 18.632 89.7623 18.748 89.9143 18.836C90.0743 18.924 90.2703 18.968 90.5023 18.968C90.9583 18.968 91.2943 18.808 91.5103 18.488C91.7343 18.16 91.8463 17.756 91.8463 17.276V14.384H93.1543V20.48C93.1543 21.296 92.9223 21.912 92.4583 22.328C92.0023 22.736 91.3383 22.94 90.4663 22.94V22.916ZM102.732 16.448H99.2638V20H97.8838V11.6H99.2638V15.212H102.732V11.6H104.112V20H102.732V16.448ZM111.348 14.408V20H110.04V19.244C109.864 19.524 109.612 19.744 109.284 19.904C108.964 20.064 108.64 20.144 108.312 20.144C107.888 20.144 107.5 20.068 107.148 19.916C106.796 19.756 106.492 19.54 106.236 19.268C105.988 18.996 105.792 18.684 105.648 18.332C105.512 17.98 105.444 17.604 105.444 17.204C105.444 16.812 105.512 16.44 105.648 16.088C105.792 15.728 105.988 15.412 106.236 15.14C106.492 14.868 106.796 14.656 107.148 14.504C107.5 14.344 107.888 14.264 108.312 14.264C108.64 14.264 108.964 14.344 109.284 14.504C109.612 14.664 109.864 14.884 110.04 15.164V14.408H111.348ZM108.384 18.98C108.632 18.98 108.856 18.932 109.056 18.836C109.264 18.74 109.44 18.612 109.584 18.452C109.728 18.292 109.84 18.104 109.92 17.888C110 17.672 110.04 17.444 110.04 17.204C110.04 16.964 110 16.736 109.92 16.52C109.84 16.304 109.728 16.116 109.584 15.956C109.44 15.796 109.264 15.668 109.056 15.572C108.856 15.476 108.632 15.428 108.384 15.428C108.136 15.428 107.912 15.476 107.712 15.572C107.512 15.668 107.34 15.796 107.196 15.956C107.052 16.116 106.94 16.304 106.86 16.52C106.788 16.736 106.752 16.964 106.752 17.204C106.752 17.444 106.788 17.672 106.86 17.888C106.94 18.104 107.052 18.292 107.196 18.452C107.34 18.612 107.512 18.74 107.712 18.836C107.912 18.932 108.136 18.98 108.384 18.98ZM114.403 15.164C114.579 14.884 114.827 14.664 115.147 14.504C115.475 14.344 115.803 14.264 116.131 14.264C116.555 14.264 116.943 14.344 117.295 14.504C117.647 14.656 117.947 14.868 118.195 15.14C118.451 15.412 118.647 15.728 118.783 16.088C118.927 16.44 118.999 16.812 118.999 17.204C118.999 17.604 118.927 17.98 118.783 18.332C118.647 18.684 118.451 18.996 118.195 19.268C117.947 19.54 117.647 19.756 117.295 19.916C116.943 20.068 116.555 20.144 116.131 20.144C115.803 20.144 115.475 20.064 115.147 19.904C114.827 19.744 114.579 19.524 114.403 19.244V22.808H113.095V14.408H114.403V15.164ZM116.059 15.428C115.803 15.428 115.571 15.476 115.363 15.572C115.163 15.668 114.991 15.796 114.847 15.956C114.703 16.116 114.591 16.304 114.511 16.52C114.439 16.736 114.403 16.964 114.403 17.204C114.403 17.444 114.439 17.672 114.511 17.888C114.591 18.104 114.703 18.292 114.847 18.452C114.991 18.612 115.163 18.74 115.363 18.836C115.571 18.932 115.803 18.98 116.059 18.98C116.307 18.98 116.531 18.932 116.731 18.836C116.931 18.74 117.103 18.612 117.247 18.452C117.391 18.292 117.499 18.104 117.571 17.888C117.651 17.672 117.691 17.444 117.691 17.204C117.691 16.964 117.651 16.736 117.571 16.52C117.499 16.304 117.391 16.116 117.247 15.956C117.103 15.796 116.931 15.668 116.731 15.572C116.531 15.476 116.307 15.428 116.059 15.428ZM121.668 15.164C121.844 14.884 122.092 14.664 122.412 14.504C122.74 14.344 123.068 14.264 123.396 14.264C123.82 14.264 124.208 14.344 124.56 14.504C124.912 14.656 125.212 14.868 125.46 15.14C125.716 15.412 125.912 15.728 126.048 16.088C126.192 16.44 126.264 16.812 126.264 17.204C126.264 17.604 126.192 17.98 126.048 18.332C125.912 18.684 125.716 18.996 125.46 19.268C125.212 19.54 124.912 19.756 124.56 19.916C124.208 20.068 123.82 20.144 123.396 20.144C123.068 20.144 122.74 20.064 122.412 19.904C122.092 19.744 121.844 19.524 121.668 19.244V22.808H120.36V14.408H121.668V15.164ZM123.324 15.428C123.068 15.428 122.836 15.476 122.628 15.572C122.428 15.668 122.256 15.796 122.112 15.956C121.968 16.116 121.856 16.304 121.776 16.52C121.704 16.736 121.668 16.964 121.668 17.204C121.668 17.444 121.704 17.672 121.776 17.888C121.856 18.104 121.968 18.292 122.112 18.452C122.256 18.612 122.428 18.74 122.628 18.836C122.836 18.932 123.068 18.98 123.324 18.98C123.572 18.98 123.796 18.932 123.996 18.836C124.196 18.74 124.368 18.612 124.512 18.452C124.656 18.292 124.764 18.104 124.836 17.888C124.916 17.672 124.956 17.444 124.956 17.204C124.956 16.964 124.916 16.736 124.836 16.52C124.764 16.304 124.656 16.116 124.512 15.956C124.368 15.796 124.196 15.668 123.996 15.572C123.796 15.476 123.572 15.428 123.324 15.428ZM130.146 22.916C129.77 22.916 129.422 22.868 129.102 22.772C128.79 22.676 128.518 22.532 128.286 22.34C128.054 22.148 127.87 21.908 127.734 21.62C127.598 21.332 127.526 20.996 127.518 20.612H128.838C128.87 21.02 129.01 21.32 129.258 21.512C129.514 21.712 129.814 21.812 130.158 21.812C130.358 21.812 130.542 21.792 130.71 21.752C130.878 21.712 131.022 21.64 131.142 21.536C131.262 21.432 131.354 21.296 131.418 21.128C131.49 20.96 131.526 20.744 131.526 20.48V19.196C131.35 19.5 131.106 19.732 130.794 19.892C130.482 20.044 130.118 20.12 129.702 20.12C129.294 20.12 128.95 20.052 128.67 19.916C128.398 19.78 128.182 19.596 128.022 19.364C127.886 19.156 127.79 18.924 127.734 18.668C127.686 18.412 127.662 18.092 127.662 17.708V14.384H128.97V17.276C128.97 17.516 128.99 17.74 129.03 17.948C129.07 18.156 129.134 18.336 129.222 18.488C129.318 18.632 129.442 18.748 129.594 18.836C129.754 18.924 129.95 18.968 130.182 18.968C130.638 18.968 130.974 18.808 131.19 18.488C131.414 18.16 131.526 17.756 131.526 17.276V14.384H132.834V20.48C132.834 21.296 132.602 21.912 132.138 22.328C131.682 22.736 131.018 22.94 130.146 22.94V22.916ZM137.564 11.6H140.576C141.024 11.6 141.428 11.68 141.788 11.84C142.156 11.992 142.468 12.204 142.724 12.476C142.988 12.748 143.188 13.064 143.324 13.424C143.468 13.776 143.54 14.148 143.54 14.54C143.54 14.844 143.5 15.136 143.42 15.416C143.34 15.688 143.22 15.944 143.06 16.184C142.908 16.416 142.72 16.628 142.496 16.82C142.28 17.004 142.036 17.152 141.764 17.264L143.432 20H141.86L140.324 17.48H138.944V20H137.564V11.6ZM140.576 16.244C140.816 16.244 141.032 16.2 141.224 16.112C141.424 16.016 141.592 15.892 141.728 15.74C141.864 15.58 141.968 15.4 142.04 15.2C142.12 14.992 142.16 14.772 142.16 14.54C142.16 14.308 142.12 14.092 142.04 13.892C141.968 13.684 141.864 13.504 141.728 13.352C141.592 13.192 141.424 13.068 141.224 12.98C141.032 12.884 140.816 12.836 140.576 12.836H138.944V16.244H140.576ZM146.899 15.248C146.491 15.248 146.151 15.364 145.879 15.596C145.607 15.828 145.471 16.172 145.471 16.628H148.255C148.255 16.196 148.127 15.86 147.871 15.62C147.623 15.372 147.299 15.248 146.899 15.248ZM145.471 17.6C145.487 17.8 145.523 17.988 145.579 18.164C145.635 18.34 145.719 18.496 145.831 18.632C145.951 18.76 146.103 18.864 146.287 18.944C146.471 19.016 146.699 19.052 146.971 19.052C147.347 19.052 147.619 18.98 147.787 18.836C147.955 18.692 148.079 18.52 148.159 18.32H149.479C149.439 18.56 149.351 18.792 149.215 19.016C149.087 19.232 148.915 19.424 148.699 19.592C148.483 19.76 148.231 19.896 147.943 20C147.655 20.096 147.331 20.144 146.971 20.144C146.499 20.144 146.087 20.068 145.735 19.916C145.391 19.764 145.103 19.556 144.871 19.292C144.639 19.028 144.463 18.716 144.343 18.356C144.231 17.996 144.175 17.612 144.175 17.204C144.175 16.788 144.235 16.4 144.355 16.04C144.483 15.68 144.663 15.368 144.895 15.104C145.127 14.84 145.415 14.636 145.759 14.492C146.103 14.34 146.495 14.264 146.935 14.264C147.295 14.264 147.631 14.328 147.943 14.456C148.263 14.584 148.539 14.764 148.771 14.996C149.011 15.22 149.195 15.484 149.323 15.788C149.459 16.092 149.527 16.424 149.527 16.784C149.527 16.88 149.523 16.996 149.515 17.132C149.515 17.26 149.499 17.416 149.467 17.6H145.471ZM154.042 20C153.938 20.016 153.798 20.032 153.622 20.048C153.446 20.064 153.262 20.072 153.07 20.072C152.91 20.072 152.726 20.056 152.518 20.024C152.31 20 152.11 19.924 151.918 19.796C151.734 19.668 151.578 19.472 151.45 19.208C151.322 18.944 151.258 18.576 151.258 18.104V15.5H150.31V14.408H151.258V12.716H152.566V14.408H153.85V15.5H152.566V17.804C152.566 18.044 152.582 18.236 152.614 18.38C152.654 18.524 152.71 18.636 152.782 18.716C152.854 18.788 152.938 18.836 153.034 18.86C153.138 18.884 153.254 18.896 153.382 18.896C153.486 18.896 153.606 18.892 153.742 18.884C153.878 18.876 153.978 18.864 154.042 18.848V20ZM160.229 14.408V20H158.921V19.22C158.745 19.524 158.501 19.756 158.189 19.916C157.877 20.068 157.513 20.144 157.097 20.144C156.689 20.144 156.345 20.076 156.065 19.94C155.793 19.804 155.577 19.62 155.417 19.388C155.281 19.18 155.185 18.948 155.129 18.692C155.081 18.436 155.057 18.116 155.057 17.732V14.408H156.365V17.3C156.365 17.54 156.385 17.764 156.425 17.972C156.465 18.18 156.529 18.36 156.617 18.512C156.713 18.656 156.837 18.772 156.989 18.86C157.149 18.948 157.345 18.992 157.577 18.992C158.033 18.992 158.369 18.832 158.585 18.512C158.809 18.184 158.921 17.78 158.921 17.3V14.408H160.229ZM165.537 15.62C165.433 15.596 165.345 15.58 165.273 15.572C165.209 15.564 165.125 15.56 165.021 15.56C164.461 15.56 164.033 15.724 163.737 16.052C163.441 16.372 163.293 16.884 163.293 17.588V20H161.985V14.408H163.293V15.308C163.357 15.18 163.445 15.06 163.557 14.948C163.677 14.828 163.813 14.724 163.965 14.636C164.125 14.54 164.293 14.468 164.469 14.42C164.653 14.364 164.837 14.336 165.021 14.336C165.229 14.336 165.401 14.364 165.537 14.42V15.62ZM166.521 14.408H167.829V15.188C168.005 14.884 168.249 14.656 168.561 14.504C168.873 14.344 169.237 14.264 169.653 14.264C170.061 14.264 170.401 14.332 170.673 14.468C170.953 14.604 171.173 14.788 171.333 15.02C171.469 15.228 171.561 15.46 171.609 15.716C171.665 15.972 171.693 16.292 171.693 16.676V20H170.385V17.108C170.385 16.868 170.365 16.644 170.325 16.436C170.285 16.228 170.217 16.052 170.121 15.908C170.033 15.756 169.909 15.636 169.749 15.548C169.597 15.46 169.405 15.416 169.173 15.416C168.717 15.416 168.377 15.58 168.153 15.908C167.937 16.228 167.829 16.628 167.829 17.108V20H166.521V14.408ZM175.897 16.844C176.089 16.916 176.277 16.992 176.461 17.072C176.645 17.152 176.809 17.252 176.953 17.372C177.097 17.492 177.209 17.636 177.289 17.804C177.377 17.972 177.421 18.184 177.421 18.44C177.421 18.728 177.361 18.98 177.241 19.196C177.129 19.412 176.969 19.592 176.761 19.736C176.561 19.872 176.325 19.972 176.053 20.036C175.781 20.108 175.493 20.144 175.189 20.144C174.885 20.144 174.597 20.1 174.325 20.012C174.053 19.924 173.809 19.796 173.593 19.628C173.385 19.452 173.217 19.24 173.089 18.992C172.969 18.736 172.909 18.444 172.909 18.116H174.181C174.181 18.484 174.281 18.744 174.481 18.896C174.689 19.04 174.949 19.112 175.261 19.112C175.517 19.112 175.733 19.064 175.909 18.968C176.085 18.872 176.173 18.704 176.173 18.464C176.173 18.336 176.137 18.232 176.065 18.152C175.993 18.072 175.885 18 175.741 17.936C175.597 17.864 175.417 17.792 175.201 17.72C174.985 17.648 174.729 17.556 174.433 17.444C174.241 17.372 174.061 17.296 173.893 17.216C173.733 17.128 173.593 17.028 173.473 16.916C173.353 16.804 173.261 16.664 173.197 16.496C173.133 16.328 173.101 16.124 173.101 15.884C173.101 15.62 173.157 15.388 173.269 15.188C173.381 14.988 173.533 14.82 173.725 14.684C173.917 14.54 174.137 14.436 174.385 14.372C174.641 14.3 174.913 14.264 175.201 14.264C175.497 14.264 175.773 14.312 176.029 14.408C176.293 14.504 176.521 14.636 176.713 14.804C176.905 14.972 177.057 15.172 177.169 15.404C177.281 15.636 177.337 15.888 177.337 16.16H176.065C176.065 15.896 175.993 15.688 175.849 15.536C175.713 15.376 175.485 15.296 175.165 15.296C174.941 15.296 174.749 15.348 174.589 15.452C174.437 15.556 174.361 15.708 174.361 15.908C174.361 16.028 174.393 16.128 174.457 16.208C174.521 16.28 174.617 16.348 174.745 16.412C174.873 16.468 175.033 16.532 175.225 16.604C175.417 16.668 175.641 16.748 175.897 16.844Z" fill="white"/>
  <mask id="mask0_27_859" style="mask-type:alpha" maskUnits="userSpaceOnUse" x="8" y="19" width="15" height="4">
  <path fill-rule="evenodd" clip-rule="evenodd" d="M8.65137 19.5039H22.2912V23.0001H8.65137V19.5039Z" fill="white"/>
  </mask>
  <g mask="url(#mask0_27_859)">
  <path fill-rule="evenodd" clip-rule="evenodd" d="M15.6309 23.0001C11.7552 23.0001 8.92398 20.6734 8.8819 20.6377C8.59382 20.3957 8.57293 19.9831 8.83505 19.7171C9.09677 19.4512 9.54182 19.4316 9.8298 19.6727C10.0522 19.8587 15.3492 24.173 21.1316 19.6577C21.4289 19.4253 21.8738 19.4604 22.1249 19.7351C22.376 20.0103 22.3386 20.4216 22.041 20.6538C19.7881 22.413 17.5778 23.0001 15.6309 23.0001Z" fill="white"/>
  </g>
  <mask id="mask1_27_859" style="mask-type:alpha" maskUnits="userSpaceOnUse" x="9" y="8" width="7" height="9">
  <path fill-rule="evenodd" clip-rule="evenodd" d="M9.61475 8H15.3026V16.5423H9.61475V8Z" fill="white"/>
  </mask>
  <g mask="url(#mask1_27_859)">
  <path fill-rule="evenodd" clip-rule="evenodd" d="M9.61475 7.99951H11.0533V11.6483C11.436 11.0381 12.1485 10.7087 13.0591 10.7087C13.9433 10.7087 14.5635 11.0015 14.9065 11.4775C15.21 11.9045 15.3026 12.3804 15.3026 13.1614V16.5418H13.864V13.6009C13.864 12.6245 13.5605 11.8802 12.5312 11.8802C11.5283 11.8802 11.0533 12.6245 11.0533 13.6009V16.5418H9.61475V7.99951Z" fill="white"/>
  </g>
  <path fill-rule="evenodd" clip-rule="evenodd" d="M20.2445 13.1726C20.9892 13.1726 21.5926 12.6144 21.5926 11.9258C21.5926 11.2375 20.9892 10.6792 20.2445 10.6792C19.4999 10.6792 18.8965 11.2375 18.8965 11.9258C18.8965 12.6144 19.4999 13.1726 20.2445 13.1726Z" fill="white"/>
</svg>